<?xml version="1.0" encoding="UTF-8" standalone="no"?>
<svg
   width="223px"
   height="30px"
   viewBox="0 0 223 30"
   version="1.1"
   id="svg1"
   sodipodi:docname="coindrop-md.svg"
   inkscape:version="1.3.1 (9b9bdc1480, 2023-11-25, custom)"
   xmlns:inkscape="http://www.inkscape.org/namespaces/inkscape"
   xmlns:sodipodi="http://sodipodi.sourceforge.net/DTD/sodipodi-0.dtd"
   xmlns="http://www.w3.org/2000/svg"
   xmlns:svg="http://www.w3.org/2000/svg">
  <defs
     id="defs1">
    <rect
       x="55.175945"
       y="6.7587893"
       width="170.54262"
       height="18.312691"
       id="rect2" />
    <rect
       x="59.085703"
       y="5.0044654"
       width="169.90686"
       height="15.896669"
       id="rect1" />
  </defs>
  <sodipodi:namedview
     id="namedview1"
     pagecolor="#ffffff"
     bordercolor="#000000"
     borderopacity="0.25"
     inkscape:showpageshadow="2"
     inkscape:pageopacity="0.0"
     inkscape:pagecheckerboard="0"
     inkscape:deskcolor="#d1d1d1"
     inkscape:zoom="3.2186099"
     inkscape:cx="123.50052"
     inkscape:cy="-41.322187"
     inkscape:window-width="1452"
     inkscape:window-height="1212"
     inkscape:window-x="26"
     inkscape:window-y="23"
     inkscape:window-maximized="0"
     inkscape:current-layer="svg-background" />
  <g
     id="svg-background"
     stroke="none"
     stroke-width="1"
     fill="none"
     fill-rule="evenodd">
    <rect
       id="Rectangle"
       fill="#FF5E5B"
       x="0"
       y="0"
       width="223"
       height="30"
       rx="8"
       style="fill:#5bafff;fill-opacity:1" />
    <g
       id="g2"
       transform="matrix(1.2595843,0,0,1.0813386,-5.6733685,-1.5783111)" />
    <path
       d="m 28.372951,10.275811 c -0.59452,1.742364 -2.489089,2.672768 -4.231261,2.078247 -1.32885,-0.453567 -2.231026,-1.691055 -2.256393,-3.0948631 -0.520516,0.0494 -1.03798,0.1272202 -1.549912,0.233269 -0.539398,-1.191139 -1.725578,-1.9569397 -3.033256,-1.9582748 v 3.0250549 c -1.62754,0.788879 -2.972031,2.060508 -3.849983,3.6417 h -1.983452 c -0.230026,0 -0.416565,0.186539 -0.416565,0.416565 v 5.000114 c 0,0.230026 0.186539,0.416565 0.416565,0.416565 h 1.983452 c 0.795936,1.440239 1.987266,2.622795 3.433227,3.408431 v 3.258324 c 0,0.230026 0.186539,0.416565 0.416756,0.416565 h 2.499961 c 0.230026,0 0.416565,-0.186539 0.416565,-0.416565 v -1.987648 c 0.957871,0.212288 1.935769,0.319862 2.916718,0.321007 1.867866,0.01202 3.716087,-0.381661 5.416678,-1.154327 v 2.820968 c 0,0.230026 0.186539,0.416565 0.416756,0.416565 h 2.499962 c 0.230026,0 0.416565,-0.186539 0.416565,-0.416565 v -5.291748 c 1.054001,-1.183318 1.645851,-2.707099 1.666641,-4.291724 0,-2.920723 -2.083206,-5.470848 -5.179024,-6.84166 z m 0,0"
       fill="#ffb655"
       id="path1"
       style="stroke-width:0.0488281" />
    <path
       d="m 25.218769,5.867548 c -1.840972,0 -3.333472,1.4923094 -3.333472,3.3332822 v 0.058365 c 0.03319,1.8405908 1.5522,3.3060068 3.392791,3.2728198 1.403808,-0.02518 2.641296,-0.927353 3.094864,-2.256203 0.119018,-0.3458024 0.179672,-0.709152 0.179099,-1.0749815 0,-1.8409728 -1.492309,-3.3332822 -3.333282,-3.3332825 z m 0,0"
       fill="#ffde55"
       id="path2"
       style="stroke-width:0.0488281" />
    <g
       fill="currentColor"
       id="g16"
       transform="matrix(0.04882812,0,0,0.04882812,10.635374,2.9508308)">
      <path
         d="m 128,221.86719 c -9.42578,0 -17.06641,-7.64063 -17.06641,-17.06641 H 93.867188 c 0,18.85156 15.281252,34.13281 34.132812,34.13281 18.85156,0 34.13281,-15.28125 34.13281,-34.13281 h -17.0664 c 0,9.42578 -7.64063,17.06641 -17.06641,17.06641 z m 0,0"
         id="path3" />
      <path
         d="m 503.46484,341.33203 v -25.59766 c 0,-14.14062 -11.46093,-25.60156 -25.59765,-25.60156 0,-58.8789 -39.87891,-113.69922 -104.44922,-144.71484 9.66016,-41.27734 -15.96875,-82.570314 -57.24609,-92.23047 -41.27735,-9.660156 -82.57032,15.96875 -92.23047,57.24609 -0.85547,3.64844 -1.44141,7.35547 -1.75,11.08985 -6.28125,0.75 -12.58203,1.63672 -18.85938,2.79687 -13.65234,-24.04687 -39.14844,-38.929685 -66.80078,-38.988279 -4.71094,0 -8.53125,3.820313 -8.53125,8.535157 V 150.66406 C 96.675781,166.83984 70.546875,191.51953 52.605469,221.86719 H 17.066406 C 7.640625,221.86719 0,229.50781 0,238.93359 v 102.39844 c 0,9.42578 7.640625,17.07031 17.066406,17.07031 h 35.542969 c 16.234375,27.42188 39.261719,50.20313 66.855465,66.14844 v 61.85156 c 0,9.42578 7.64454,17.06641 17.07032,17.06641 h 51.19922 c 9.42578,0 17.0664,-7.64063 17.0664,-17.06641 V 456.125 c 51.55078,9.53516 104.74219,4.51172 153.59766,-14.50781 v 44.78515 c 0,9.42578 7.64062,17.06641 17.07031,17.06641 h 51.19922 c 9.42578,0 17.06641,-7.64063 17.06641,-17.06641 V 381.125 c 17.72656,-21.03906 29.1289,-46.67188 32.89453,-73.92578 h 1.23828 c 4.71094,0 8.53515,3.82031 8.53515,8.53515 v 25.60157 c 0,9.42578 7.64063,17.0664 17.06641,17.0664 H 512 v -17.0664 h -8.53516 z M 238.93359,128 c 0,-32.988281 26.74219,-59.734375 59.73438,-59.734375 32.98828,0 59.73047,26.746094 59.73047,59.734375 0.0117,6.55859 -1.07813,13.07422 -3.21485,19.27734 -8.22265,24.20313 -30.95703,40.47266 -56.51562,40.45703 -1.9961,0 -3.98828,-0.10156 -5.97656,-0.30859 -30.04688,-3.18359 -53.0625,-28.18359 -53.75782,-58.39453 z m 189.77344,244.48828 c -1.3164,1.54688 -2.03906,3.50781 -2.03906,5.53906 v 108.375 h -51.19922 v -57.77343 c 0,-4.71094 -3.82031,-8.53125 -8.53516,-8.53125 -1.24218,0.004 -2.46484,0.27343 -3.59375,0.79296 -51.86328,23.15235 -109.82031,28.9336 -165.23828,16.47657 -4.60156,-1.01172 -9.15625,1.89843 -10.16797,6.5 -0.13281,0.60156 -0.19922,1.21484 -0.19922,1.82812 v 40.70703 h -51.20312 v -66.73047 c 0.008,-3.05468 -1.62109,-5.88281 -4.26563,-7.41015 -28.19921,-15.27344 -51.441401,-38.28906 -66.996089,-66.33594 -1.472656,-2.82812 -4.398437,-4.59765 -7.585937,-4.58984 H 17.066406 V 238.93359 H 57.6875 c 3.175781,-0.004 6.089844,-1.77343 7.558594,-4.58984 17.117187,-30.85937 43.386716,-55.64453 75.187496,-70.9375 2.84375,-1.46094 4.63282,-4.39062 4.63282,-7.58594 v -52.80468 c 20.13671,2.98437 37.38671,15.96875 45.82421,34.49218 1.64844,3.625 5.58594,5.63282 9.48829,4.82813 7.38281,-1.52735 14.83203,-2.77344 22.23046,-3.70313 0.16016,1.16797 0.4336,2.30469 0.64844,3.45703 0.1875,0.98047 0.34375,1.98047 0.5625,2.94532 0.35938,1.55078 0.85547,3.07031 1.26563,4.58984 0.23828,0.78516 0.41797,1.58594 0.67187,2.35547 0.75,2.25391 1.60547,4.46875 2.5586,6.62891 0.21484,0.47656 0.48046,0.92968 0.69921,1.41015 0.77735,1.70703 1.58204,3.34375 2.47657,4.95703 0.43359,0.77735 0.92968,1.50782 1.39062,2.27735 0.76172,1.2539 1.51172,2.55859 2.33985,3.73828 0.55468,0.80859 1.16015,1.57812 1.70703,2.36328 0.85156,1.10937 1.6289,2.21875 2.50781,3.27734 0.64062,0.78516 1.33203,1.52735 2.00391,2.28516 0.89843,1 1.79296,1.98828 2.73046,2.94531 0.72657,0.73438 1.48438,1.4336 2.23829,2.14063 0.97265,0.90625 1.94531,1.78515 2.95312,2.63672 0.42578,0.35937 0.85156,0.74218 1.26172,1.09375 h -28.75781 v 17.0664 h 153.60156 v -17.0664 h -28.57813 c 0.40625,-0.33204 0.85157,-0.63282 1.23438,-0.97266 l 0.11328,-0.0937 c 2.51172,-2.14063 4.88281,-4.4375 7.09766,-6.87891 0.20703,-0.23047 0.41797,-0.43359 0.625,-0.66406 2.12109,-2.39062 4.08984,-4.91016 5.88672,-7.55469 0.27343,-0.39062 0.55468,-0.77343 0.85546,-1.17578 1.73438,-2.63672 3.30469,-5.375 4.69922,-8.19922 0.1211,-0.23047 0.27344,-0.4375 0.39453,-0.66797 57.58204,28.26172 93.00391,76.91016 93.00391,128.60547 -0.45312,30.41797 -11.84766,59.65235 -32.09375,82.35547 z m 0,0"
         id="path4" />
      <path
         fill="#ffde55"
         d="m 392.53516,25.601562 h 17.0664 v 17.066407 h -17.0664 z m 0,0"
         id="path5" />
      <path
         fill="#ffde55"
         d="m 409.60156,42.667969 h 17.06641 v 17.066406 h -17.06641 z m 0,0"
         id="path6" />
      <path
         fill="#ffde55"
         d="m 375.46875,42.667969 h 17.06641 v 17.066406 h -17.06641 z m 0,0"
         id="path7" />
      <path
         fill="#ffde55"
         d="m 392.53516,59.734375 h 17.0664 v 17.066406 h -17.0664 z m 0,0"
         id="path8" />
      <path
         fill="#ffde55"
         d="m 469.33203,93.867188 h 17.07031 v 17.066402 h -17.07031 z m 0,0"
         id="path9" />
      <path
         fill="#ffde55"
         d="m 486.40234,110.93359 h 17.06641 V 128 h -17.06641 z m 0,0"
         id="path10" />
      <path
         fill="#ffde55"
         d="m 452.26562,110.93359 h 17.06641 V 128 h -17.06641 z m 0,0"
         id="path11" />
      <path
         fill="#ffde55"
         d="m 469.33203,128 h 17.07031 v 17.06641 h -17.07031 z m 0,0"
         id="path12" />
      <path
         fill="#ffde55"
         d="m 196.26562,0 h 17.06641 v 17.066406 h -17.06641 z m 0,0"
         id="path13" />
      <path
         fill="#ffde55"
         d="m 213.33203,17.066406 h 17.06641 v 17.066406 h -17.06641 z m 0,0"
         id="path14" />
      <path
         fill="#ffde55"
         d="m 179.19922,17.066406 h 17.0664 v 17.066406 h -17.0664 z m 0,0"
         id="path15" />
      <path
         fill="#ffde55"
         d="m 196.26562,34.132812 h 17.06641 v 17.066407 h -17.06641 z m 0,0"
         id="path16" />
    </g>
    <path
       style="font-weight:bold;font-size:14.6667px;font-family:Nunito;-inkscape-font-specification:Nunito;white-space:pre;fill:#ffffff"
       d="m 59.869125,19.60881 q -0.645334,0 -1.290669,-0.102667 -0.645335,-0.088 -1.217336,-0.278667 -0.572002,-0.205334 -1.026669,-0.498668 -0.264001,-0.176001 -0.366668,-0.425335 -0.102667,-0.249333 -0.07333,-0.484001 0.044,-0.249334 0.190667,-0.425334 0.161333,-0.190667 0.396001,-0.234667 0.234667,-0.044 0.513334,0.132 0.645335,0.381334 1.364003,0.557335 0.718669,0.176 1.51067,0.176 1.15867,0 1.686671,-0.381334 0.528001,-0.396001 0.528001,-1.012002 0,-0.513335 -0.381334,-0.806669 Q 61.335795,15.531467 60.42646,15.3408 l -1.613337,-0.337334 q -1.393337,-0.293334 -2.082672,-0.982669 -0.674668,-0.704002 -0.674668,-1.848004 0,-0.718669 0.293334,-1.305337 0.293334,-0.586668 0.821335,-1.012002 0.542668,-0.4253343 1.276003,-0.6453348 0.748002,-0.2346672 1.642671,-0.2346672 0.880002,0 1.672004,0.2200005 0.792002,0.2200005 1.42267,0.6453348 0.234667,0.1613337 0.308,0.3960007 0.088,0.234667 0.044,0.469335 -0.044,0.22 -0.205333,0.381334 -0.161334,0.161334 -0.410668,0.190667 -0.234667,0.02933 -0.542668,-0.146667 -0.542668,-0.308001 -1.100002,-0.440001 -0.557335,-0.132 -1.20267,-0.132 -0.674668,0 -1.158669,0.190667 -0.484001,0.190667 -0.748002,0.542668 -0.249334,0.337334 -0.249334,0.806668 0,0.528001 0.352001,0.850669 0.352001,0.308001 1.202669,0.484001 l 1.598671,0.337334 q 1.452003,0.308001 2.156005,0.968002 0.718668,0.660002 0.718668,1.760004 0,0.704002 -0.293334,1.276003 -0.278667,0.572002 -0.821335,0.982669 -0.528001,0.410668 -1.276003,0.630668 -0.748002,0.220001 -1.686671,0.220001 z m 8.110665,0 q -0.894669,0 -1.481337,-0.322668 -0.586668,-0.337334 -0.880002,-0.997335 -0.278667,-0.660002 -0.278667,-1.642671 v -3.549341 q 0,-0.469335 0.234667,-0.689335 0.234667,-0.234667 0.674668,-0.234667 0.440001,0 0.674669,0.234667 0.249334,0.22 0.249334,0.689335 v 3.578675 q 0,0.762668 0.308,1.129336 0.308001,0.366667 0.982669,0.366667 0.733335,0 1.20267,-0.498668 0.469334,-0.513334 0.469334,-1.349336 v -3.226674 q 0,-0.469335 0.234667,-0.689335 0.234667,-0.234667 0.674668,-0.234667 0.440001,0 0.674669,0.234667 0.249334,0.22 0.249334,0.689335 v 5.544013 q 0,0.938668 -0.894669,0.938668 -0.425335,0 -0.660002,-0.234667 -0.234667,-0.249334 -0.234667,-0.704001 v -1.11467 l 0.205334,0.440001 q -0.308001,0.792002 -0.938669,1.217336 -0.616001,0.425335 -1.46667,0.425335 z m 6.805328,2.610672 q -0.440001,0 -0.674668,-0.234667 -0.234667,-0.234667 -0.234667,-0.689335 v -8.198685 q 0,-0.454668 0.234667,-0.689335 0.234667,-0.234667 0.660001,-0.234667 0.440001,0 0.674669,0.234667 0.234667,0.234667 0.234667,0.689335 v 1.144002 l -0.161334,-0.440001 q 0.220001,-0.748001 0.894669,-1.202669 0.689335,-0.454668 1.59867,-0.454668 0.938669,0 1.642671,0.454668 0.718668,0.454668 1.114669,1.29067 0.396001,0.821335 0.396001,1.980004 0,1.144003 -0.396001,1.994671 -0.396001,0.836002 -1.100003,1.29067 -0.704001,0.454668 -1.657337,0.454668 -0.894668,0 -1.569337,-0.440001 -0.674668,-0.454668 -0.909335,-1.173336 h 0.176 v 3.300007 q 0,0.454668 -0.249334,0.689335 -0.234667,0.234667 -0.674668,0.234667 z m 2.71334,-4.004009 q 0.542668,0 0.953335,-0.264 0.410668,-0.264001 0.630668,-0.777335 0.234668,-0.528002 0.234668,-1.305337 0,-1.173336 -0.498668,-1.745337 -0.498668,-0.586668 -1.320003,-0.586668 -0.542668,0 -0.953336,0.264 -0.410667,0.249334 -0.645335,0.777336 -0.22,0.513334 -0.22,1.290669 0,1.15867 0.498668,1.760004 0.498667,0.586668 1.320003,0.586668 z m 6.086659,4.004009 q -0.440001,0 -0.674668,-0.234667 -0.234667,-0.234667 -0.234667,-0.689335 v -8.198685 q 0,-0.454668 0.234667,-0.689335 0.234667,-0.234667 0.660002,-0.234667 0.440001,0 0.674668,0.234667 0.234667,0.234667 0.234667,0.689335 v 1.144002 l -0.161334,-0.440001 q 0.220001,-0.748001 0.894669,-1.202669 0.689335,-0.454668 1.59867,-0.454668 0.938669,0 1.642671,0.454668 0.718668,0.454668 1.114669,1.29067 0.396001,0.821335 0.396001,1.980004 0,1.144003 -0.396001,1.994671 -0.396001,0.836002 -1.100002,1.29067 -0.704002,0.454668 -1.657338,0.454668 -0.894668,0 -1.569336,-0.440001 -0.674669,-0.454668 -0.909336,-1.173336 h 0.176001 v 3.300007 q 0,0.454668 -0.249334,0.689335 -0.234668,0.234667 -0.674669,0.234667 z m 2.71334,-4.004009 q 0.542668,0 0.953335,-0.264 0.410668,-0.264001 0.630669,-0.777335 0.234667,-0.528002 0.234667,-1.305337 0,-1.173336 -0.498668,-1.745337 -0.498668,-0.586668 -1.320003,-0.586668 -0.542668,0 -0.953336,0.264 -0.410667,0.249334 -0.645334,0.777336 -0.220001,0.513334 -0.220001,1.290669 0,1.15867 0.498668,1.760004 0.498668,0.586668 1.320003,0.586668 z m 8.447998,1.393337 q -1.114669,0 -1.936004,-0.454668 -0.821335,-0.454668 -1.276003,-1.29067 -0.454668,-0.850668 -0.454668,-1.994671 0,-0.865335 0.249334,-1.540003 0.264001,-0.689335 0.748002,-1.173336 0.484001,-0.498668 1.158669,-0.748002 0.674668,-0.264001 1.51067,-0.264001 1.11467,0 1.936005,0.454668 0.821335,0.454668 1.276003,1.29067 0.454667,0.836002 0.454667,1.980004 0,0.865335 -0.264,1.55467 -0.249334,0.689335 -0.733335,1.188003 -0.484001,0.484001 -1.158669,0.748002 -0.674669,0.249334 -1.510671,0.249334 z m 0,-1.393337 q 0.542668,0 0.953336,-0.264 0.410668,-0.264001 0.630668,-0.777335 0.234667,-0.528002 0.234667,-1.305337 0,-1.173336 -0.498668,-1.745337 -0.498667,-0.586668 -1.320003,-0.586668 -0.542668,0 -0.953335,0.264 -0.410668,0.249334 -0.645335,0.777336 -0.22,0.513334 -0.22,1.290669 0,1.15867 0.498667,1.760004 0.498668,0.586668 1.320003,0.586668 z m 6.115985,1.364003 q -0.45467,0 -0.704,-0.234667 -0.234668,-0.249334 -0.234668,-0.704001 v -5.544013 q 0,-0.454668 0.234668,-0.689335 0.23467,-0.234667 0.66,-0.234667 0.42533,0 0.66,0.234667 0.23467,0.234667 0.23467,0.689335 v 0.924002 h -0.14667 q 0.20534,-0.880002 0.80667,-1.33467 0.60134,-0.454668 1.59867,-0.542668 0.308,-0.02933 0.484,0.161334 0.19067,0.176 0.22,0.557335 0.0293,0.366667 -0.176,0.601334 -0.19066,0.220001 -0.58667,0.264001 l -0.32266,0.02933 q -0.89467,0.088 -1.34934,0.557335 -0.45467,0.454668 -0.45467,1.29067 v 3.036007 q 0,0.454667 -0.23466,0.704001 -0.23467,0.234667 -0.68934,0.234667 z m 8.50666,0.02933 q -0.95333,0 -1.59867,-0.322668 -0.63067,-0.322667 -0.93867,-0.938668 -0.308,-0.630669 -0.308,-1.554671 v -3.124007 h -0.76267 q -0.352,0 -0.54267,-0.176 -0.19066,-0.190667 -0.19066,-0.513335 0,-0.337334 0.19066,-0.513334 0.19067,-0.176001 0.54267,-0.176001 h 0.76267 v -1.334669 q 0,-0.454668 0.23467,-0.689335 0.24933,-0.234668 0.68933,-0.234668 0.44,0 0.67467,0.234668 0.23467,0.234667 0.23467,0.689335 v 1.334669 h 1.55467 q 0.352,0 0.54267,0.176001 0.19066,0.176 0.19066,0.513334 0,0.322668 -0.19066,0.513335 -0.19067,0.176 -0.54267,0.176 h -1.55467 v 3.02134 q 0,0.704002 0.308,1.056003 0.308,0.352001 0.99733,0.352001 0.24934,0 0.44001,-0.044 0.19066,-0.044 0.33733,-0.05867 0.176,-0.01467 0.29333,0.117333 0.11734,0.117334 0.11734,0.498668 0,0.293334 -0.10267,0.528001 -0.088,0.220001 -0.33733,0.308001 -0.19067,0.05867 -0.49867,0.102667 -0.308,0.05867 -0.54267,0.05867 z m 7.26,-0.02933 q -0.44,0 -0.67467,-0.234667 -0.23467,-0.249334 -0.23467,-0.704001 v -5.544013 q 0,-0.454668 0.23467,-0.689335 0.23467,-0.234667 0.66,-0.234667 0.42534,0 0.66,0.234667 0.23467,0.234667 0.23467,0.689335 v 1.070669 l -0.16133,-0.440001 q 0.29333,-0.733335 0.90933,-1.158669 0.616,-0.425335 1.46667,-0.425335 0.86534,0 1.42267,0.410668 0.55734,0.410668 0.77734,1.261336 h -0.20534 q 0.29334,-0.777335 0.96801,-1.217336 0.67466,-0.454668 1.55467,-0.454668 0.82133,0 1.34933,0.322668 0.54267,0.322667 0.80667,0.982669 0.264,0.645334 0.264,1.64267 v 3.549342 q 0,0.454667 -0.24933,0.704001 -0.23467,0.234667 -0.67467,0.234667 -0.44,0 -0.67467,-0.234667 -0.23467,-0.249334 -0.23467,-0.704001 V 15.1648 q 0,-0.821336 -0.27866,-1.20267 -0.264,-0.381334 -0.90934,-0.381334 -0.71867,0 -1.12933,0.513334 -0.41067,0.498668 -0.41067,1.393337 v 3.153341 q 0,0.454667 -0.23467,0.704001 -0.23467,0.234667 -0.67467,0.234667 -0.44,0 -0.68933,-0.234667 -0.23467,-0.249334 -0.23467,-0.704001 V 15.1648 q 0,-0.821336 -0.27867,-1.20267 -0.264,-0.381334 -0.89467,-0.381334 -0.71866,0 -1.12933,0.513334 -0.41067,0.498668 -0.41067,1.393337 v 3.153341 q 0,0.938668 -0.924,0.938668 z m 15.45869,0.02933 q -1.21734,0 -2.09734,-0.454668 -0.88,-0.454668 -1.364,-1.29067 -0.46934,-0.836001 -0.46934,-1.980004 0,-1.114669 0.45467,-1.950671 0.46933,-0.836002 1.276,-1.305337 0.82134,-0.484001 1.86267,-0.484001 0.76267,0 1.36401,0.249334 0.616,0.249334 1.04133,0.718669 0.44,0.469334 0.66,1.144002 0.23467,0.660002 0.23467,1.496004 0,0.264 -0.19067,0.410667 -0.176,0.132 -0.51333,0.132 h -4.70801 v -1.056002 h 4.12134 l -0.23467,0.220001 q 0,-0.674669 -0.20533,-1.129336 -0.19067,-0.454668 -0.572,-0.689335 -0.36667,-0.249334 -0.924,-0.249334 -0.616,0 -1.05601,0.293334 -0.42533,0.278667 -0.66,0.806668 -0.22,0.513335 -0.22,1.232003 v 0.102667 q 0,1.20267 0.55734,1.804004 0.572,0.586668 1.672,0.586668 0.38134,0 0.85067,-0.088 0.484,-0.102667 0.90933,-0.337334 0.30801,-0.176 0.54267,-0.146667 0.23467,0.01467 0.36667,0.161334 0.14667,0.146667 0.176,0.366667 0.0293,0.205334 -0.088,0.425334 -0.10267,0.220001 -0.36667,0.381335 -0.51333,0.322667 -1.188,0.484001 -0.66,0.146667 -1.232,0.146667 z m 11.66002,0 q -1.11467,0 -1.936,-0.454668 -0.82134,-0.454668 -1.276,-1.29067 -0.45467,-0.850668 -0.45467,-1.994671 0,-0.865335 0.24933,-1.540003 0.264,-0.689335 0.748,-1.173336 0.48401,-0.498668 1.15867,-0.748002 0.67467,-0.264001 1.51067,-0.264001 1.11467,0 1.93601,0.454668 0.82133,0.454668 1.276,1.29067 0.45467,0.836002 0.45467,1.980004 0,0.865335 -0.264,1.55467 -0.24934,0.689335 -0.73334,1.188003 -0.484,0.484001 -1.15867,0.748002 -0.67466,0.249334 -1.51067,0.249334 z m 0,-1.393337 q 0.54267,0 0.95334,-0.264 0.41067,-0.264001 0.63067,-0.777335 0.23466,-0.528002 0.23466,-1.305337 0,-1.173336 -0.49866,-1.745337 -0.49867,-0.586668 -1.32001,-0.586668 -0.54266,0 -0.95333,0.264 -0.41067,0.249334 -0.64534,0.777336 -0.22,0.513334 -0.22,1.290669 0,1.15867 0.49867,1.760004 0.49867,0.586668 1.32,0.586668 z m 6.08666,1.364003 q -0.44001,0 -0.67467,-0.234667 -0.23467,-0.249334 -0.23467,-0.704001 v -5.544013 q 0,-0.454668 0.23467,-0.689335 0.23466,-0.234667 0.66,-0.234667 0.42533,0 0.66,0.234667 0.23467,0.234667 0.23467,0.689335 v 0.997335 l -0.16134,-0.366667 q 0.32267,-0.777335 0.99734,-1.173336 0.68933,-0.410668 1.55467,-0.410668 0.86533,0 1.42267,0.322668 0.55733,0.322667 0.836,0.982669 0.27867,0.645334 0.27867,1.64267 v 3.549342 q 0,0.454667 -0.23467,0.704001 -0.23467,0.234667 -0.67467,0.234667 -0.44,0 -0.68933,-0.234667 -0.23467,-0.249334 -0.23467,-0.704001 v -3.461342 q 0,-0.836002 -0.32267,-1.217336 -0.308,-0.381334 -0.968,-0.381334 -0.80667,0 -1.29067,0.513334 -0.46933,0.498668 -0.46933,1.33467 v 3.212008 q 0,0.938668 -0.924,0.938668 z m 16.63202,0.02933 q -1.61334,0 -2.77201,-0.645335 -1.144,-0.660002 -1.76,-1.848004 -0.616,-1.20267 -0.616,-2.830673 0,-1.217337 0.352,-2.185339 0.352,-0.982669 1.012,-1.672004 0.66,-0.7040013 1.61334,-1.0706688 0.968,-0.3813342 2.17067,-0.3813342 0.80667,0 1.584,0.2053338 0.77734,0.2053338 1.364,0.586668 0.30801,0.1906671 0.41067,0.4693342 0.10267,0.264001 0.044,0.528001 -0.0587,0.249334 -0.24933,0.425335 -0.176,0.176 -0.45467,0.205334 -0.264,0.01467 -0.58667,-0.190668 -0.45467,-0.293334 -0.98267,-0.425334 -0.528,-0.132 -1.07067,-0.132 -1.04133,0 -1.76,0.425334 -0.71867,0.425334 -1.08534,1.232003 -0.36666,0.806669 -0.36666,1.980005 0,1.158669 0.36666,1.980004 0.36667,0.821335 1.08534,1.24667 0.71867,0.425334 1.76,0.425334 0.55734,0 1.10001,-0.132 0.54266,-0.146667 1.02667,-0.440001 0.32266,-0.190667 0.572,-0.161334 0.264,0.01467 0.44,0.176 0.176,0.161334 0.23467,0.410668 0.0587,0.234667 -0.0293,0.498668 -0.088,0.249334 -0.352,0.440001 -0.58667,0.425334 -1.408,0.660001 -0.80667,0.220001 -1.64267,0.220001 z m 7.74397,0 q -1.11467,0 -1.936,-0.454668 -0.82134,-0.454668 -1.27601,-1.29067 -0.45467,-0.850668 -0.45467,-1.994671 0,-0.865335 0.24934,-1.540003 0.264,-0.689335 0.748,-1.173336 0.484,-0.498668 1.15867,-0.748002 0.67467,-0.264001 1.51067,-0.264001 1.11467,0 1.936,0.454668 0.82134,0.454668 1.27601,1.29067 0.45466,0.836002 0.45466,1.980004 0,0.865335 -0.264,1.55467 -0.24933,0.689335 -0.73333,1.188003 -0.484,0.484001 -1.15867,0.748002 -0.67467,0.249334 -1.51067,0.249334 z m 0,-1.393337 q 0.54267,0 0.95334,-0.264 0.41066,-0.264001 0.63066,-0.777335 0.23467,-0.528002 0.23467,-1.305337 0,-1.173336 -0.49867,-1.745337 -0.49866,-0.586668 -1.32,-0.586668 -0.54267,0 -0.95334,0.264 -0.41066,0.249334 -0.64533,0.777336 -0.22,0.513334 -0.22,1.290669 0,1.15867 0.49867,1.760004 0.49866,0.586668 1.32,0.586668 z m 6.08665,1.349337 q -0.44,0 -0.67467,-0.264001 -0.23466,-0.264001 -0.23466,-0.733335 v -5.382679 q 0,-0.484001 0.23466,-0.733335 0.23467,-0.264001 0.67467,-0.264001 0.44,0 0.67467,0.264001 0.24933,0.249334 0.24933,0.733335 v 5.382679 q 0,0.469334 -0.23466,0.733335 -0.23467,0.264001 -0.68934,0.264001 z m 0,-8.741354 q -0.51333,0 -0.80667,-0.249334 -0.27866,-0.264 -0.27866,-0.718668 0,-0.4693344 0.27866,-0.7186683 0.29334,-0.2493339 0.80667,-0.2493339 0.528,0 0.80667,0.2493339 0.27867,0.2493339 0.27867,0.7186683 0,0.454668 -0.27867,0.718668 -0.27867,0.249334 -0.80667,0.249334 z m 3.74,8.75602 q -0.44,0 -0.67467,-0.234667 -0.23467,-0.249334 -0.23467,-0.704001 v -5.544013 q 0,-0.454668 0.23467,-0.689335 0.23467,-0.234667 0.66,-0.234667 0.42534,0 0.66,0.234667 0.23467,0.234667 0.23467,0.689335 v 0.997335 l -0.16133,-0.366667 q 0.32267,-0.777335 0.99733,-1.173336 0.68934,-0.410668 1.55467,-0.410668 0.86534,0 1.42267,0.322668 0.55734,0.322667 0.83601,0.982669 0.27866,0.645334 0.27866,1.64267 v 3.549342 q 0,0.454667 -0.23466,0.704001 -0.23467,0.234667 -0.67467,0.234667 -0.44,0 -0.68934,-0.234667 -0.23466,-0.249334 -0.23466,-0.704001 v -3.461342 q 0,-0.836002 -0.32267,-1.217336 -0.308,-0.381334 -0.968,-0.381334 -0.80667,0 -1.29067,0.513334 -0.46934,0.498668 -0.46934,1.33467 v 3.212008 q 0,0.938668 -0.924,0.938668 z m 10.42801,0.02933 q -0.93867,0 -1.65734,-0.454668 -0.704,-0.454668 -1.1,-1.29067 -0.39601,-0.850668 -0.39601,-1.994671 0,-1.158669 0.39601,-1.980004 0.396,-0.836002 1.1,-1.29067 0.71867,-0.454668 1.65734,-0.454668 0.89466,0 1.55467,0.440001 0.67466,0.440001 0.90933,1.15867 h -0.16133 V 9.9287875 q 0,-0.4546677 0.23466,-0.6893349 0.23467,-0.2346672 0.67467,-0.2346672 0.44,0 0.67467,0.2346672 0.24934,0.2346672 0.24934,0.6893349 v 8.7120205 q 0,0.454667 -0.23467,0.704001 -0.23467,0.234667 -0.67467,0.234667 -0.44,0 -0.67467,-0.234667 -0.23467,-0.249334 -0.23467,-0.704001 v -1.144003 l 0.16134,0.440001 q -0.22,0.762668 -0.89467,1.217336 -0.67467,0.454668 -1.584,0.454668 z m 0.51333,-1.393337 q 0.54267,0 0.95334,-0.264 0.41066,-0.264001 0.63066,-0.777335 0.23467,-0.528002 0.23467,-1.305337 0,-1.173336 -0.49867,-1.745337 -0.49866,-0.586668 -1.32,-0.586668 -0.54267,0 -0.95334,0.264 -0.41066,0.249334 -0.64533,0.777336 -0.22,0.513334 -0.22,1.290669 0,1.15867 0.49867,1.760004 0.49866,0.586668 1.32,0.586668 z m 6.468,1.364003 q -0.45467,0 -0.704,-0.234667 -0.23467,-0.249334 -0.23467,-0.704001 v -5.544013 q 0,-0.454668 0.23467,-0.689335 0.23466,-0.234667 0.66,-0.234667 0.42533,0 0.66,0.234667 0.23467,0.234667 0.23467,0.689335 v 0.924002 h -0.14667 q 0.20533,-0.880002 0.80667,-1.33467 0.60133,-0.454668 1.59867,-0.542668 0.308,-0.02933 0.484,0.161334 0.19067,0.176 0.22,0.557335 0.0293,0.366667 -0.176,0.601334 -0.19067,0.220001 -0.58667,0.264001 l -0.32267,0.02933 q -0.89466,0.088 -1.34933,0.557335 -0.45467,0.454668 -0.45467,1.29067 v 3.036007 q 0,0.454667 -0.23467,0.704001 -0.23466,0.234667 -0.68933,0.234667 z m 7.96398,0.02933 q -1.11467,0 -1.93601,-0.454668 -0.82133,-0.454668 -1.276,-1.29067 -0.45467,-0.850668 -0.45467,-1.994671 0,-0.865335 0.24934,-1.540003 0.264,-0.689335 0.748,-1.173336 0.484,-0.498668 1.15867,-0.748002 0.67466,-0.264001 1.51067,-0.264001 1.11467,0 1.936,0.454668 0.82134,0.454668 1.276,1.29067 0.45467,0.836002 0.45467,1.980004 0,0.865335 -0.264,1.55467 -0.24933,0.689335 -0.73333,1.188003 -0.48401,0.484001 -1.15867,0.748002 -0.67467,0.249334 -1.51067,0.249334 z m 0,-1.393337 q 0.54266,0 0.95333,-0.264 0.41067,-0.264001 0.63067,-0.777335 0.23467,-0.528002 0.23467,-1.305337 0,-1.173336 -0.49867,-1.745337 -0.49867,-0.586668 -1.32,-0.586668 -0.54267,0 -0.95334,0.264 -0.41067,0.249334 -0.64533,0.777336 -0.22,0.513334 -0.22,1.290669 0,1.15867 0.49866,1.760004 0.49867,0.586668 1.32001,0.586668 z m 6.08664,4.004009 q -0.44,0 -0.67467,-0.234667 -0.23467,-0.234667 -0.23467,-0.689335 v -8.198685 q 0,-0.454668 0.23467,-0.689335 0.23467,-0.234667 0.66,-0.234667 0.44,0 0.67467,0.234667 0.23467,0.234667 0.23467,0.689335 v 1.144002 l -0.16133,-0.440001 q 0.22,-0.748001 0.89466,-1.202669 0.68934,-0.454668 1.59867,-0.454668 0.93867,0 1.64267,0.454668 0.71867,0.454668 1.11467,1.29067 0.39601,0.821335 0.39601,1.980004 0,1.144003 -0.39601,1.994671 -0.396,0.836002 -1.1,1.29067 -0.704,0.454668 -1.65734,0.454668 -0.89466,0 -1.56933,-0.440001 -0.67467,-0.454668 -0.90934,-1.173336 h 0.176 v 3.300007 q 0,0.454668 -0.24933,0.689335 -0.23467,0.234667 -0.67467,0.234667 z m 2.71334,-4.004009 q 0.54267,0 0.95334,-0.264 0.41066,-0.264001 0.63066,-0.777335 0.23467,-0.528002 0.23467,-1.305337 0,-1.173336 -0.49867,-1.745337 -0.49866,-0.586668 -1.32,-0.586668 -0.54267,0 -0.95334,0.264 -0.41066,0.249334 -0.64533,0.777336 -0.22,0.513334 -0.22,1.290669 0,1.15867 0.49867,1.760004 0.49866,0.586668 1.32,0.586668 z"
       id="text1"
       transform="translate(-11.72017,-0.08131422)"
       aria-label="Support me on Coindrop" />
  </g>
</svg>
