<?xml version="1.0" encoding="UTF-8" standalone="no"?>
<svg
   width="223px"
   height="30px"
   viewBox="0 0 223 30"
   version="1.1"
   id="svg1"
   sodipodi:docname="coindrop-md.svg"
   inkscape:version="1.3.1 (9b9bdc1480, 2023-11-25, custom)"
   xmlns:inkscape="http://www.inkscape.org/namespaces/inkscape"
   xmlns:sodipodi="http://sodipodi.sourceforge.net/DTD/sodipodi-0.dtd"
   xmlns="http://www.w3.org/2000/svg"
   xmlns:svg="http://www.w3.org/2000/svg">
  <defs
     id="defs1">
    <rect
       x="55.175945"
       y="6.7587893"
       width="170.54262"
       height="18.312691"
       id="rect2" />
    <rect
       x="59.085703"
       y="5.0044654"
       width="169.90686"
       height="15.896669"
       id="rect1" />
  </defs>
  <sodipodi:namedview
     id="namedview1"
     pagecolor="#ffffff"
     bordercolor="#000000"
     borderopacity="0.25"
     inkscape:showpageshadow="2"
     inkscape:pageopacity="0.0"
     inkscape:pagecheckerboard="0"
     inkscape:deskcolor="#d1d1d1"
     inkscape:zoom="3.2186099"
     inkscape:cx="123.50052"
     inkscape:cy="-41.322187"
     inkscape:window-width="1452"
     inkscape:window-height="1212"
     inkscape:window-x="26"
     inkscape:window-y="23"
     inkscape:window-maximized="0"
     inkscape:current-layer="svg-background" />
  <g
     id="svg-background"
     stroke="none"
     stroke-width="1"
     fill="none"
     fill-rule="evenodd">
    <rect
       id="Rectangle"
       fill="#FF5E5B"
       x="0"
       y="0"
       width="223"
       height="30"
       rx="8"
       style="fill:#5bafff;fill-opacity:1" />
    <g
       id="g2"
       transform="matrix(1.2595843,0,0,1.0813386,-5.6733685,-1.5783111)" />
    <path
       d="m 28.372951,10.275811 c -0.59452,1.742364 -2.489089,2.672768 -4.231261,2.078247 -1.32885,-0.453567 -2.231026,-1.691055 -2.256393,-3.0948631 -0.520516,0.0494 -1.03798,0.1272202 -1.549912,0.233269 -0.539398,-1.191139 -1.725578,-1.9569397 -3.033256,-1.9582748 v 3.0250549 c -1.62754,0.788879 -2.972031,2.060508 -3.849983,3.6417 h -1.983452 c -0.230026,0 -0.416565,0.186539 -0.416565,0.416565 v 5.000114 c 0,0.230026 0.186539,0.416565 0.416565,0.416565 h 1.983452 c 0.795936,1.440239 1.987266,2.622795 3.433227,3.408431 v 3.258324 c 0,0.230026 0.186539,0.416565 0.416756,0.416565 h 2.499961 c 0.230026,0 0.416565,-0.186539 0.416565,-0.416565 v -1.987648 c 0.957871,0.212288 1.935769,0.319862 2.916718,0.321007 1.867866,0.01202 3.716087,-0.381661 5.416678,-1.154327 v 2.820968 c 0,0.230026 0.186539,0.416565 0.416756,0.416565 h 2.499962 c 0.230026,0 0.416565,-0.186539 0.416565,-0.416565 v -5.291748 c 1.054001,-1.183318 1.645851,-2.707099 1.666641,-4.291724 0,-2.920723 -2.083206,-5.470848 -5.179024,-6.84166 z m 0,0"
       fill="#ffb655"
       id="path1"
       style="stroke-width:0.0488281" />
    <path
       d="m 25.218769,5.867548 c -1.840972,0 -3.333472,1.4923094 -3.333472,3.3332822 v 0.058365 c 0.03319,1.8405908 1.5522,3.3060068 3.392791,3.2728198 1.403808,-0.02518 2.641296,-0.927353 3.094864,-2.256203 0.119018,-0.3458024 0.179672,-0.709152 0.179099,-1.0749815 0,-1.8409728 -1.492309,-3.3332822 -3.333282,-3.3332825 z m 0,0"
       fill="#ffde55"
       id="path2"
       style="stroke-width:0.0488281" />
    <g
       fill="currentColor"
       id="g16"
       transform="matrix(0.04882812,0,0,0.04882812,10.635374,2.9508308)">
      <path
         d="m 128,221.86719 c -9.42578,0 -17.06641,-7.64063 -17.06641,-17.06641 H 93.867188 c 0,18.85156 15.281252,34.13281 34.132812,34.13281 18.85156,0 34.13281,-15.28125 34.13281,-34.13281 h -17.0664 c 0,9.42578 -7.64063,17.06641 -17.06641,17.06641 z m 0,0"
         id="path3" />
      <path
         d="m 503.46484,341.33203 v -25.59766 c 0,-14.14062 -11.46093,-25.60156 -25.59765,-25.60156 0,-58.8789 -39.87891,-113.69922 -104.44922,-144.71484 9.66016,-41.27734 -15.96875,-82.570314 -57.24609,-92.23047 -41.27735,-9.660156 -82.57032,15.96875 -92.23047,57.24609 -0.85547,3.64844 -1.44141,7.35547 -1.75,11.08985 -6.28125,0.75 -12.58203,1.63672 -18.85938,2.79687 -13.65234,-24.04687 -39.14844,-38.929685 -66.80078,-38.988279 -4.71094,0 -8.53125,3.820313 -8.53125,8.535157 V 150.66406 C 96.675781,166.83984 70.546875,191.51953 52.605469,221.86719 H 17.066406 C 7.640625,221.86719 0,229.50781 0,238.93359 v 102.39844 c 0,9.42578 7.640625,17.07031 17.066406,17.07031 h 35.542969 c 16.234375,27.42188 39.261719,50.20313 66.855465,66.14844 v 61.85156 c 0,9.42578 7.64454,17.06641 17.07032,17.06641 h 51.19922 c 9.42578,0 17.0664,-7.64063 17.0664,-17.06641 V 456.125 c 51.55078,9.53516 104.74219,4.51172 153.59766,-14.50781 v 44.78515 c 0,9.42578 7.64062,17.06641 17.07031,17.06641 h 51.19922 c 9.42578,0 17.06641,-7.64063 17.06641,-17.06641 V 381.125 c 17.72656,-21.03906 29.1289,-46.67188 32.89453,-73.92578 h 1.23828 c 4.71094,0 8.53515,3.82031 8.53515,8.53515 v 25.60157 c 0,9.42578 7.64063,17.0664 17.06641,17.0664 H 512 v -17.0664 h -8.53516 z M 238.93359,128 c 0,-32.988281 26.74219,-59.734375 59.73438,-59.734375 32.98828,0 59.73047,26.746094 59.73047,59.734375 0.0117,6.55859 -1.07813,13.07422 -3.21485,19.27734 -8.22265,24.20313 -30.95703,40.47266 -56.51562,40.45703 -1.9961,0 -3.98828,-0.10156 -5.97656,-0.30859 -30.04688,-3.18359 -53.0625,-28.18359 -53.75782,-58.39453 z m 189.77344,244.48828 c -1.3164,1.54688 -2.03906,3.50781 -2.03906,5.53906 v 108.375 h -51.19922 v -57.77343 c 0,-4.71094 -3.82031,-8.53125 -8.53516,-8.53125 -1.24218,0.004 -2.46484,0.27343 -3.59375,0.79296 -51.86328,23.15235 -109.82031,28.9336 -165.23828,16.47657 -4.60156,-1.01172 -9.15625,1.89843 -10.16797,6.5 -0.13281,0.60156 -0.19922,1.21484 -0.19922,1.82812 v 40.70703 h -51.20312 v -66.73047 c 0.008,-3.05468 -1.62109,-5.88281 -4.26563,-7.41015 -28.19921,-15.27344 -51.441401,-38.28906 -66.996089,-66.33594 -1.472656,-2.82812 -4.398437,-4.59765 -7.585937,-4.58984 H 17.066406 V 238.93359 H 57.6875 c 3.175781,-0.004 6.089844,-1.77343 7.558594,-4.58984 17.117187,-30.85937 43.386716,-55.64453 75.187496,-70.9375 2.84375,-1.46094 4.63282,-4.39062 4.63282,-7.58594 v -52.80468 c 20.13671,2.98437 37.38671,15.96875 45.82421,34.49218 1.64844,3.625 5.58594,5.63282 9.48829,4.82813 7.38281,-1.52735 14.83203,-2.77344 22.23046,-3.70313 0.16016,1.16797 0.4336,2.30469 0.64844,3.45703 0.1875,0.98047 0.34375,1.98047 0.5625,2.94532 0.35938,1.55078 0.85547,3.07031 1.26563,4.58984 0.23828,0.78516 0.41797,1.58594 0.67187,2.35547 0.75,2.25391 1.60547,4.46875 2.5586,6.62891 0.21484,0.47656 0.48046,0.92968 0.69921,1.41015 0.77735,1.70703 1.58204,3.34375 2.47657,4.95703 0.43359,0.77735 0.92968,1.50782 1.39062,2.27735 0.76172,1.2539 1.51172,2.55859 2.33985,3.73828 0.55468,0.80859 1.16015,1.57812 1.70703,2.36328 0.85156,1.10937 1.6289,2.21875 2.50781,3.27734 0.64062,0.78516 1.33203,1.52735 2.00391,2.28516 0.89843,1 1.79296,1.98828 2.73046,2.94531 0.72657,0.73438 1.48438,1.4336 2.23829,2.14063 0.97265,0.90625 1.94531,1.78515 2.95312,2.63672 0.42578,0.35937 0.85156,0.74218 1.26172,1.09375 h -28.75781 v 17.0664 h 153.60156 v -17.0664 h -28.57813 c 0.40625,-0.33204 0.85157,-0.63282 1.23438,-0.97266 l 0.11328,-0.0937 c 2.51172,-2.14063 4.88281,-4.4375 7.09766,-6.87891 0.20703,-0.23047 0.41797,-0.43359 0.625,-0.66406 2.12109,-2.39062 4.08984,-4.91016 5.88672,-7.55469 0.27343,-0.39062 0.55468,-0.77343 0.85546,-1.17578 1.73438,-2.63672 3.30469,-5.375 4.69922,-8.19922 0.1211,-0.23047 0.27344,-0.4375 0.39453,-0.66797 57.58204,28.26172 93.00391,76.91016 93.00391,128.60547 -0.45312,30.41797 -11.84766,59.65235 -32.09375,82.35547 z m 0,0"
         id="path4" />
      <path
         fill="#ffde55"
         d="m 392.53516,25.601562 h 17.0664 v 17.066407 h -17.0664 z m 0,0"
         id="path5" />
      <path
         fill="#ffde55"
         d="m 409.60156,42.667969 h 17.06641 v 17.066406 h -17.06641 z m 0,0"
         id="path6" />
      <path
         fill="#ffde55"
         d="m 375.46875,42.667969 h 17.06641 v 17.066406 h -17.06641 z m 0,0"
         id="path7" />
      <path
         fill="#ffde55"
         d="m 392.53516,59.734375 h 17.0664 v 17.066406 h -17.0664 z m 0,0"
         id="path8" />
      <path
         fill="#ffde55"
         d="m 469.33203,93.867188 h 17.07031 v 17.066402 h -17.07031 z m 0,0"
         id="path9" />
      <path
         fill="#ffde55"
         d="m 486.40234,110.93359 h 17.06641 V 128 h -17.06641 z m 0,0"
         id="path10" />
      <path
         fill="#ffde55"
         d="m 452.26562,110.93359 h 17.06641 V 128 h -17.06641 z m 0,0"
         id="path11" />
      <path
         fill="#ffde55"
         d="m 469.33203,128 h 17.07031 v 17.06641 h -17.07031 z m 0,0"
         id="path12" />
      <path
         fill="#ffde55"
         d="m 196.26562,0 h 17.06641 v 17.066406 h -17.06641 z m 0,0"
         id="path13" />
      <path
         fill="#ffde55"
         d="m 213.33203,17.066406 h 17.06641 v 17.066406 h -17.06641 z m 0,0"
         id="path14" />
      <path
         fill="#ffde55"
         d="m 179.19922,17.066406 h 17.0664 v 17.066406 h -17.0664 z m 0,0"
         id="path15" />
      <path
         fill="#ffde55"
         d="m 196.26562,34.132812 h 17.06641 v 17.066407 h -17.06641 z m 0,0"
         id="path16" />
    </g>
    <text
       xml:space="preserve"
       id="text1"
       style="font-style:normal;font-variant:normal;font-weight:normal;font-stretch:normal;font-size:14.6667px;font-family:Nunito;-inkscape-font-specification:Nunito;white-space:pre;shape-inside:url(#rect2);display:inline;fill:#5f5bff"
       transform="translate(-11.72017,-0.08131422)"><tspan
         x="55.175781"
         y="19.462143"
         id="tspan3"><tspan
           style="font-weight:bold;fill:#ffffff"
           id="tspan1">Support me on Coindrop</tspan></tspan></text>
  </g>
</svg>
